  <svg
    xmlns="http://www.w3.org/2000/svg"
    viewBox="0 0 512 512"
    role="img"
    fill="none"
    stroke="currentColor"
    strokeWidth="2"
    strokeLinecap="round"
    strokeLinejoin="round"
    className="icon-moon">
    <path fill="rgb(255, 239, 0)" d="M 279.1 512 c 78.8 0 151 -35.8 198.8 -94.8 c 28.3 -34.8 -2.6 -85.7 -46.2 -77.4 c -82.3 15.7 -158.3 -47.3 -158.3 -130.8 c 0 -48.4 26.1 -92.3 67.4 -115.8 c 38.7 -22.1 29 -80.8 -15 -88.9 A 257.9 257.9 0 0 0 279.1 0 c -141.4 0 -256 114.6 -256 256 c 0 141.4 114.6 256 256 256 z m 0 -464 c 13 0 25.7 1.2 38 3.5 c -54.8 31.2 -91.7 90 -91.7 157.6 c 0 113.8 103.6 199.2 215.3 177.9 C 402.6 434 344.4 464 279.1 464 c -114.9 0 -208 -93.1 -208 -208 s 93.1 -208 208 -208 z"/>
  </svg>